<svg width="3854" height="1876" viewBox="0 0 3854 1876" fill="none" xmlns="http://www.w3.org/2000/svg">
<path fill-rule="evenodd" clip-rule="evenodd" d="M377.585 181.132C466.211 113.954 624.137 39.3398 721.512 18.6536C908.219 -21.031 1136.55 3.74837 1306.1 82.0918C1495.07 169.415 1534.59 206.309 2040.03 767.146C2545.94 1328.49 2600.89 1385.46 2675.66 1426.05C2999.46 1601.82 3400.34 1396.99 3463.31 1023.59C3523.62 665.998 3207.19 331.552 2858.77 384.631C2713.55 406.751 2634.67 453.872 2474.99 613.923C2399.79 689.298 2325.39 755.861 2309.64 761.846C2268.24 777.596 2186.84 775.201 2152.29 757.224C2088.79 724.184 2039.77 645.488 2039.77 576.578C2039.77 514.607 2087.57 449.558 2234.47 311.616C2433.88 124.38 2553.59 55.1722 2745.05 16.4365C2870.98 -9.03807 3072.05 -1.1164 3181.52 33.6255C3485.14 129.985 3721.29 365.61 3822.74 673.434C3850.98 759.061 3853.69 781.601 3853.99 932.699C3854.39 1121.45 3835.83 1208.01 3764.64 1349.64C3709.57 1459.21 3672.75 1510.35 3584.51 1599.83C3403.69 1783.2 3181.79 1876 2924.09 1876C2828.57 1876 2783.85 1870.32 2709.63 1848.82C2449.69 1773.48 2338.07 1686.39 1973.77 1274.71C1866.38 1153.36 1689.61 957.964 1580.95 840.501C1472.3 723.047 1367.09 607.921 1347.18 584.653C1178.8 388.018 909.786 327.768 686.454 436.65C409.224 571.834 298.689 911.583 440.531 1192.6C480.962 1272.7 578.457 1380.12 647.448 1420.57C807.797 1514.58 1015.57 1511.85 1185.85 1413.52C1216.74 1395.67 1306.09 1319.43 1384.41 1244.1C1462.72 1168.77 1537.65 1101.39 1550.9 1094.38C1584.1 1076.83 1670.61 1078.4 1706.62 1097.21C1806.78 1149.54 1847.44 1269.78 1797.84 1366.99C1773.71 1414.3 1560.56 1623.19 1460.62 1697.45C1371.08 1764 1237.35 1826.85 1125.17 1855.09C1047.19 1874.73 1009.41 1877.69 888.001 1873.65C761.745 1869.46 730.393 1864.38 638.777 1833.25C500.465 1786.26 400.73 1725.71 294.663 1624.38C191.452 1525.76 144.999 1464.76 93.1073 1359.75C30.2723 1232.6 8.49592 1139.4 1.97649 969.761C-2.56846 851.282 0.26669 800.827 15.2913 732.558C60.2224 528.508 200.012 315.742 377.585 181.132Z" fill="#004976"/>
</svg>