<svg width="3228" height="724" viewBox="0 0 3228 724" fill="none" xmlns="http://www.w3.org/2000/svg">
<path d="M72 143V611.308H334.385V523.304H161.384V143H72Z" fill="#004976"/>
<path d="M1360.71 448.567V352.967H1493.89C1522.46 352.967 1542.9 347.693 1555.21 337.144C1567.95 326.595 1574.33 311.211 1574.33 290.992C1574.33 271.213 1567.95 256.048 1555.21 245.499C1542.9 234.951 1522.46 229.676 1493.89 229.676H1360.71V134.076H1499.82C1538.94 134.076 1571.69 140.669 1598.06 153.855C1624.87 166.602 1644.87 184.843 1658.06 208.578C1671.68 231.874 1678.5 259.345 1678.5 290.992C1678.5 322.639 1671.68 350.33 1658.06 374.065C1644.87 397.8 1624.87 416.261 1598.06 429.447C1571.69 442.194 1538.94 448.567 1499.82 448.567H1360.71ZM1315.88 589V134.076H1418.07V589H1315.88Z" fill="#004976"/>
<path d="M1899.02 426.026L1768.7 151.327H1666.05L1895.56 627.807L2114.12 151.327H2021.86L1899.02 426.026Z" fill="#004976"/>
<path d="M2237.53 151.327H2148.15V619.635H2237.53V151.327Z" fill="#004976"/>
<path d="M2653.31 412.826C2641.2 483.229 2586.99 534.146 2522.41 534.146C2450.32 534.146 2393.23 468.142 2393.23 385.796C2393.23 302.82 2450.32 236.188 2522.41 236.188C2566.81 236.188 2610.64 260.704 2641.78 310.992L2711.55 256.932C2672.92 188.415 2601.99 143.155 2521.83 143.155C2399.58 143.155 2301.54 251.904 2301.54 385.796C2301.54 519.688 2399.58 627.807 2522.41 627.807C2636.59 627.807 2731.16 532.889 2743.85 412.826H2653.31Z" fill="#004976"/>
<path d="M3005.66 627.807C3128.49 627.807 3227.67 519.059 3227.67 385.167C3227.67 251.275 3128.49 143.155 3005.08 143.155C2882.25 143.155 2783.06 251.275 2783.06 385.167C2783.06 519.059 2882.25 627.807 3005.66 627.807ZM3005.08 236.188C3077.74 236.188 3135.98 302.82 3135.98 385.167C3135.98 468.771 3078.32 534.146 3005.66 534.146C2931.84 534.146 2874.75 468.771 2874.75 385.167C2874.75 302.82 2931.84 236.188 3005.08 236.188Z" fill="#004976"/>
<path fill-rule="evenodd" clip-rule="evenodd" d="M425.111 196.216C446.497 179.447 484.604 160.82 508.101 155.657C553.154 145.75 608.249 151.936 649.162 171.493C694.76 193.292 704.298 202.501 826.26 342.504C948.335 482.633 961.596 496.856 979.638 506.989C1057.77 550.866 1154.5 499.735 1169.7 406.52C1184.25 317.254 1107.9 233.766 1023.82 247.016C988.78 252.538 969.746 264.301 931.216 304.255C913.069 323.071 895.116 339.687 891.316 341.181C881.327 345.113 861.684 344.515 853.347 340.027C838.026 331.78 826.197 312.135 826.197 294.932C826.197 279.462 837.73 263.224 873.178 228.789C921.297 182.049 950.183 164.773 996.381 155.103C1026.77 148.744 1075.29 150.721 1101.7 159.394C1174.97 183.449 1231.95 242.268 1256.43 319.111C1263.24 340.486 1263.9 346.113 1263.97 383.832C1264.06 430.949 1259.59 452.559 1242.41 487.914C1229.12 515.265 1220.24 528.033 1198.94 550.37C1155.31 596.144 1101.77 619.31 1039.58 619.31C1016.53 619.31 1005.74 617.893 987.834 612.526C925.112 593.718 898.177 571.976 810.271 469.21C784.357 438.915 741.704 390.139 715.483 360.816C689.266 331.496 663.88 302.757 659.076 296.948C618.444 247.862 553.532 232.821 499.642 260.002C432.746 293.748 406.074 378.56 440.3 448.71C450.056 468.706 473.582 495.523 490.229 505.619C528.922 529.087 579.057 528.407 620.146 503.86C627.599 499.404 649.161 480.373 668.06 461.567C686.955 442.762 705.035 425.943 708.232 424.193C716.244 419.813 737.119 420.203 745.807 424.9C769.977 437.963 779.787 467.977 767.819 492.246C761.998 504.055 710.564 556.2 686.448 574.739C664.843 591.35 632.574 607.04 605.505 614.091C586.687 618.992 577.571 619.731 548.275 618.724C517.809 617.677 510.244 616.41 488.137 608.637C454.762 596.907 430.696 581.794 405.102 556.497C380.197 531.878 368.988 516.652 356.467 490.438C341.305 458.697 336.05 435.431 334.477 393.083C333.38 363.507 334.064 350.912 337.69 333.87C348.532 282.933 382.263 229.819 425.111 196.216Z" fill="#004976"/>
</svg>
